<?xml version="1.0" encoding="iso-8859-1"?>
<!-- Generator: Adobe Illustrator 19.0.0, SVG Export Plug-In . SVG Version: 6.00 Build 0)  -->
<svg version="1.1" id="Capa_1" xmlns="http://www.w3.org/2000/svg" xmlns:xlink="http://www.w3.org/1999/xlink" x="0px" y="0px"
	 viewBox="0 0 512.001 512.001" style="enable-background:new 0 0 512.001 512.001;" xml:space="preserve">
<g>
	<g>
		<g>
			<path d="M487.659,242.144c-7.901-8.968-17.826-15.152-28.975-18.463c3.679-8.062,6.145-16.695,7.347-25.354
				c2.527-18.202-0.607-35.284-12.972-49.358c-11.441-13.023-27.803-21.042-43.817-26.915c-3.942-1.446-8.164-2.388-12.011-4.055
				c-4.307-1.867-4.901-4.303-4.929-8.768c-0.057-9.12,0.172-18.009-0.633-27.127c-1.551-17.571-5.687-36.233-21.077-46.897
				c-8.61-5.967-19.696-8.017-30.009-7.849c-3.992,0.065-10.002,2.261-13.817,1.168c-3.813-1.093-6.642-7.674-9.302-10.519
				C303.137,2.683,279.46-1.309,259.504,0.349c-7.745,0.644-15.901,0.879-23.55,2.754c-2.021,0.313-4.038,0.651-6.044,1.041
				c-21.499,4.176-41.749,13.261-58.061,28.031c-7.967,7.214-14.888,15.717-19.712,25.354c-2.037,4.071-2.988,8.525-4.998,12.574
				c-2.518,5.073-5.193,5.838-10.193,7.535c-20.516,6.957-36.825,22.169-51.013,37.986c-13.305,14.833-23.286,31.585-27.497,51.232
				c-4.209,19.639-3.771,41.814,4.275,60.423c0.38,0.88,0.793,1.732,1.207,2.584c-18.462,5.345-34.525,20.33-44.591,36.085
				c-5.187,8.119-9.453,17.54-8.813,27.385c0.597,9.192,5.241,17.495,12.936,22.61c9.753,6.483,21.857,6.361,32.888,3.933
				c5.462-1.202,10.775-2.977,16.083-4.715c2.756-0.902,5.521-1.77,8.292-2.625c0.542-0.167,1.977-0.434,3.323-0.774
				c-1.251,20.387,3.355,40.851,6.789,60.867c1.943,11.324,3.604,22.647,6.103,33.871c2.541,11.412,5.594,22.701,8.088,34.123
				c3.777,17.297,6.157,37.141,21.68,48.3c15.16,10.898,35.094,14.01,53.103,16.764c22.429,3.43,44.815,5.342,67.504,5.833
				c22.928,0.497,46.099,0.978,68.993-0.577c20.671-1.404,42.822-4.776,61.761-13.619c17.718-8.273,26.087-24.098,28.792-42.818
				c1.548-10.712,1.958-21.571,2.754-32.355c0.994-13.466,2.089-26.923,3.164-40.383c1.073-13.44,2.393-26.725,1.496-40.209
				c-0.376-5.651-0.621-11.237-0.148-16.887c0.393-4.699,0.67-9.121-0.945-13.509c0.122-0.326,0.247-0.651,0.362-0.979
				c4.06,3.023,8.016,5.981,13.06,7.966c7.441,2.928,15.577,4.247,23.56,4.259c12.53,0.02,25.506-3.449,35.521-11.159
				C508.066,294.01,504.95,261.771,487.659,242.144z M77.291,143.107c5.131-7.972,11.566-14.671,18.403-21.18
				c7.474-7.116,14.877-14.535,23.181-20.692c7.984-5.919,16.398-10.056,25.712-13.362c3.621-1.286,7.036-3.093,8.996-6.554
				c2.414-4.262,2.365-8.943,3.394-13.582c4.391-19.786,24.653-36.187,41.679-45.126c16.492-8.659,34.766-12.455,53.173-14.106
				c3.078,0.073,6.145,0.216,9.158,0.296c9.928,0.263,20.068,1.724,29.48,4.969c4.773,1.645,9.128,4.083,13.155,7.124
				c4.152,3.134,5.883,6.925,8.812,11.039c2.489,3.496,5.736,6.83,9.967,8.063c5.039,1.469,10.074-0.184,15.092-0.764
				c9.229-1.068,19.807-0.056,27.564,5.444c6.82,4.836,10.821,12.439,12.899,20.377c2.072,7.915,2.485,16.163,2.814,24.301
				c0.157,3.875,0.411,7.745,0.079,11.615c-0.396,4.613-1.084,9.241-0.543,13.869c1.146,9.795,8.619,13.982,17.297,16.566
				c7.223,2.151,14.368,4.558,21.219,7.722c13.848,6.396,28.456,15.833,34.263,30.658c13.413,34.245-11.792,73.971-45.884,82.434
				c-9.083,2.255-18.818,2.669-28.016,0.836c-4.452-0.887-8.883-2.178-12.996-4.116c-4.362-2.056-8.023-5.254-12.324-7.332
				c-9.346-4.515-16.354,3.66-23.367,8.753c-9.075,6.591-18.499,12.543-28.521,17.587c-21.037,10.586-43.285,21.258-67.377,16.899
				c-18.361-3.322-36.681-9.263-49.206-23.903c-5.218-6.099-6.792-14.804-15.841-16.02c-9.417-1.266-17.65,3.636-26.394,6.172
				c-16.061,4.658-35.06,2.827-49.673-5.413C59.043,226.26,57.863,173.296,77.291,143.107z M124.646,469.459
				c-3.927-7.066-5.79-15.125-7.522-22.955c-5.116-23.129-12.477-45.644-17.37-68.83c-3.805-18.03-7.723-35.957-10.39-54.139
				c1.008,2.251,2.218,4.409,3.631,6.416c6.361,9.037,15.921,14.834,26.37,18.048c0.396,0.122,0.792,0.227,1.189,0.339
				c0.433,9.761,2.125,19.445,3.675,29.094c2.172,13.523,2.922,27.238,4.755,40.81c1.77,13.104,3.9,26.111,6.746,39.026
				c1.411,6.404,2.777,12.809,3.844,19.281c0.355,2.151,0.51,4.476,0.688,6.826C133.767,480.175,128.294,476.023,124.646,469.459z
				 M147.243,486.364c-0.304-2.996-0.967-6.022-1.369-8.679c-0.979-6.48-2.299-12.904-3.532-19.338
				c-2.548-13.306-4.824-26.614-6.53-40.058c-1.599-12.601-2.899-25.311-4.987-37.84c-1.729-10.378-4.385-20.599-5.659-31.02
				c9.958,1.886,19.985,0.868,29.442-2.237c-0.772,24.809,1.993,49.872,5.458,74.362c1.884,13.316,4.533,26.486,7.268,39.649
				c1.315,6.328,2.617,12.659,3.745,19.024c0.714,4.023,0.939,8.432,1.51,12.683C163.923,491.406,155.335,489.429,147.243,486.364z
				 M195.693,496.222c-5.167-0.687-10.442-1.354-15.73-2.134c-0.344-3.75-1.211-7.56-1.807-11.083
				c-1.127-6.663-2.487-13.284-3.891-19.894c-2.789-13.128-5.524-26.233-7.734-39.474c-4.287-25.69-6.311-51.56-9.196-77.401
				c9.267-3.474,17.912-8.927,25.306-15.578c2.921,4.845,7.025,9.065,11.782,12.313c1.031,9.605,0.189,19.489,0.298,29.066
				c0.18,15.806,1.389,31.697,2.189,47.486c0.762,15.03,2.048,30.026,3.121,45.035c0.742,10.374,1.226,22.273,4.432,32.703
				C201.537,496.95,198.612,496.61,195.693,496.222z M211.921,497.974c-1.422-5.155-2.827-10.247-3.604-15.639
				c-1.011-7.009-1.47-14.083-1.975-21.142c-1.11-15.514-2.627-30.979-3.48-46.514c-0.833-15.167-2.364-30.414-2.659-45.593
				c-0.146-7.511,0.226-15.399-0.524-23.056c4.044,1.963,8.38,3.247,12.77,3.659c7.469,0.7,14.82-1.701,21.164-5.574
				c0.919,11.899,0.219,24.059,0.174,35.903c-0.056,14.795,0.661,29.595,1.457,44.365c1.338,24.811,0.128,50.503,4.302,75.099
				C230.325,499.208,221.108,498.757,211.921,497.974z M279.535,420.324c-1.818,26.552-0.332,53.084-0.324,79.66
				c-5.866-0.024-11.727-0.085-17.574-0.127c-4.987-0.035-9.979-0.098-14.971-0.199c-2.303-11.995-2.849-24.279-3.359-36.458
				c-0.597-14.259-1.345-28.498-2.332-42.736c-1.019-14.702-2.105-29.375-2.395-44.113c-0.225-11.439-0.826-22.552-2.718-33.707
				c0.663-0.458,1.318-0.926,1.954-1.413c3.456-2.646,6.791-5.613,9.104-9.344c0.848-1.368,1.502-2.824,2.085-4.313
				c4.571,6.228,9.6,12.079,16.353,16.108c5.909,3.526,12.409,4.962,19.003,4.918C283.842,372.576,281.173,396.403,279.535,420.324z
				 M302.027,482.784c-0.224,4.165-0.384,8.332-0.485,12.502c-0.035,1.463-0.135,2.968-0.174,4.473
				c-4.914,0.146-9.834,0.211-14.753,0.228c-0.154-26.579-1.614-53.084-0.277-79.663c1.207-24.004,3.883-48.015,3.284-72.064
				c2.485-0.298,4.965-0.775,7.413-1.418c10.351-2.719,21.031-7.963,29.135-15.484c-2.041,28.119-10.496,55.616-15.367,83.294
				c-2.633,14.959-5.147,30.015-6.871,45.108C303.058,467.412,302.441,475.095,302.027,482.784z M336.595,460.266
				c-0.596,7.02-1.056,14.051-1.371,21.089c-0.218,4.853-0.924,10.422-0.692,15.631c-2.939,0.476-5.889,0.887-8.857,1.204
				c-5.72,0.609-11.46,1.014-17.211,1.289c-0.007-1.078-0.026-2.157-0.003-3.231c0.091-4.169,0.244-8.337,0.458-12.501
				c0.396-7.692,1.006-15.373,1.85-23.03c1.777-16.123,4.132-32.214,6.814-48.21c4.811-28.696,12.978-57.157,13.463-86.392
				c1.611-2.001,3.064-4.112,4.282-6.356c4.526,6.244,10.566,11.341,17.434,14.883c-1.127,13.484-1.701,26.891-3.714,40.34
				c-2.156,14.402-4.822,28.725-7.144,43.1C339.642,432.084,337.795,446.129,336.595,460.266z M361.959,484.513
				c-0.15,1.722-0.12,4.031-0.171,6.209c-2.158,0.652-4.33,1.245-6.491,1.807c-4.424,1.153-8.87,2.197-13.341,3.102
				c0.173-4.473-0.157-9.119-0.012-13.317c0.254-7.357,0.662-14.708,1.221-22.048c1.131-14.843,3.015-29.575,5.304-44.281
				c2.185-14.038,4.484-28.05,6.153-42.162c1.431-12.104,3.105-24.905,2.415-37.244c5.711,2.304,11.852,3.585,18.091,3.602
				c1.609,0.004,3.183-0.105,4.724-0.302c-0.646,27.624-5.773,54.894-9.968,82.159c-2.221,14.434-3.809,28.941-5.671,43.423
				C363.398,471.802,362.513,478.143,361.959,484.513z M403.529,339.734c0.316,11.17-0.57,22.038-1.466,33.168
				c-1.743,21.656-3.564,43.304-5.083,64.977c-1.11,15.84-2.663,34.487-16.815,44.466c-3.564,2.513-7.465,4.444-11.519,6.026
				c0.02-0.309,0.039-0.619,0.062-0.911c0.467-5.752,1.106-11.472,1.805-17.201c1.889-15.473,3.422-30.991,5.392-46.453
				c3.59-28.173,8.449-56.352,8.478-84.809c7.66-2.002,14.296-6.431,19.505-12.3C403.396,331.035,403.405,335.362,403.529,339.734z
				 M488.008,290.498c-4.945,12.101-17.782,18.421-30.097,20.22c-7.765,1.134-15.907,0.574-23.438-1.585
				c-3.953-1.133-7.807-2.68-11.177-5.075c-3.565-2.534-6.625-5.673-10.289-8.097c-2.901-1.919-7.65-0.103-8.331,3.389
				c-2.83,14.523-13.455,29.275-29.549,29.467c-15.728,0.188-31.246-9.802-35.595-25.193c-1.819-6.436-10.379-4.547-11.017,1.491
				c-1.724,16.305-20.312,26.929-34.5,30.766c-8.291,2.242-16.721,2.324-24.189-2.376c-7.46-4.695-12.928-12.565-17.564-19.886
				c-2.08-3.286-7.293-3.679-9.28,0c-3.166,5.859-4.555,12.015-9.607,16.688c-5.033,4.655-11.566,8.3-18.551,8.493
				c-8.028,0.222-24.982-7.49-25.258-17.146c-0.102-3.565-4.569-7.112-7.918-4.541c-15.619,11.993-32.901,24.044-53.656,20.981
				c-9.536-1.408-19.12-5.413-25.49-12.853c-2.778-3.244-4.807-7.101-5.904-11.225c-0.863-3.242-1.082-6.996-2.981-9.879
				c-3.784-5.745-10.374-2.5-15.446-0.827c-10.184,3.359-20.465,7.935-31.21,9.112c-9.841,1.078-20.697-1.728-25.999-10.766
				c-4.757-8.11-3.066-17.628,0.816-25.687c8.825-18.32,25.522-33.681,44.114-42.339c8.613,15.12,22.734,25.455,39.963,29.766
				c9.196,2.301,18.935,3.113,28.369,2.118c9.912-1.045,18.403-4.95,27.945-7.325c1.982-0.493,3.877-0.785,5.922-0.738
				c0.181,0.004,0.34,0.022,0.471,0.038c0.255,0.299,0.494,0.644,0.689,0.891c3.283,4.159,7.527,7.791,11.286,11.512
				c6.376,6.311,13.853,11.515,21.954,15.361c19.783,9.392,43.52,13.976,64.9,8.301c23.229-6.167,46.16-17.605,66.258-30.654
				c2.531-1.644,5.035-3.34,7.524-5.049c1.867-1.281,4.976-2.706,6.4-4.404c0.026-0.032,0.055-0.059,0.084-0.085
				c0.425,0.182,1.064,0.411,1.282,0.562c2.35,1.614,4.717,3.221,7.212,4.606c9.111,5.061,19.361,7.739,29.724,8.443
				c20.103,1.365,41.054-5.189,55.803-19.107c4.648-4.385,8.646-9.415,12.019-14.856
				C476.577,241.444,498.353,265.18,488.008,290.498z"/>
			<path d="M206.05,137.186c12.4,0.977,26.039-4.503,33.06-15.001c6.996-10.465,5.707-26.021-4.265-34.204
				c-5.302-4.351-12.364-6.395-19.169-6.334c-14.623,0.131-28.36,14.92-31.937,28.828
				C179.915,125.345,192.106,136.087,206.05,137.186z M233.321,96.02c8.105,11.341,0.947,24.436-10.011,30.104
				c-9.951,5.147-30.054,6.373-33.815-7.396C183.382,96.342,218.802,75.702,233.321,96.02z"/>
			<path d="M148.782,201.818c12.235-2.482,22.449-14.282,21.484-26.937c-0.513-6.728-3.871-13.059-8.556-17.738
				c-10.065-10.052-29.979-9.213-42.337-1.943c-13.212,7.772-12.559,23.759-3.833,34.202
				C123.3,198.688,136.508,204.308,148.782,201.818z M117.415,164.978c11.795-19.934,50.668-9.834,46.08,14.481
				c-2.561,13.574-16.781,17.789-28.295,14.161C124.743,190.326,110.161,177.24,117.415,164.978z"/>
			<path d="M214.564,175.17c-13.211,7.772-12.559,23.759-3.833,34.202c7.76,9.286,20.968,14.906,33.242,12.416
				c12.234-2.482,22.449-14.282,21.484-26.937c-0.513-6.728-3.871-13.059-8.556-17.737
				C246.836,167.062,226.922,167.901,214.564,175.17z M258.686,199.43c-2.561,13.573-16.781,17.788-28.295,14.16
				c-10.457-3.294-25.04-16.38-17.785-28.641C224.401,165.015,263.274,175.115,258.686,199.43z"/>
			<path d="M319.194,109.956c12.234-2.482,22.449-14.283,21.484-26.937c-0.513-6.728-3.871-13.059-8.556-17.737
				c-10.065-10.052-29.979-9.213-42.337-1.944c-13.212,7.772-12.559,23.759-3.833,34.202
				C293.712,106.826,306.92,112.446,319.194,109.956z M287.826,73.116c11.795-19.934,50.668-9.834,46.08,14.481
				c-2.561,13.574-16.78,17.789-28.295,14.161C295.154,98.464,280.571,85.378,287.826,73.116z"/>
			<path d="M319.901,202.716c7.76,9.286,20.968,14.906,33.242,12.416c12.234-2.483,22.449-14.283,21.484-26.937
				c-0.513-6.728-3.871-13.059-8.556-17.737c-10.065-10.052-29.979-9.213-42.337-1.944
				C310.522,176.286,311.175,192.273,319.901,202.716z M367.855,192.773c-2.561,13.574-16.78,17.788-28.295,14.161
				c-10.457-3.294-25.039-16.38-17.785-28.642C333.57,158.358,372.443,168.458,367.855,192.773z"/>
		</g>
	</g>
</g>
<g>
</g>
<g>
</g>
<g>
</g>
<g>
</g>
<g>
</g>
<g>
</g>
<g>
</g>
<g>
</g>
<g>
</g>
<g>
</g>
<g>
</g>
<g>
</g>
<g>
</g>
<g>
</g>
<g>
</g>
</svg>
